<svg xmlns="http://www.w3.org/2000/svg" xmlns:xlink="http://www.w3.org/1999/xlink" width="8" height="8" viewBox="0 0 8 8"><defs><path id="d67ua" d="M883.89 357.17c0 .58-.05 1.15-.15 1.68l-.3 1.67 1.4-.82c.45-.26.95-.5 1.49-.69l.12-.04.55 1.76-.16.06c-.52.21-1.05.35-1.57.4-.53.07-1.07.12-1.62.17.43.39.84.77 1.22 1.14.38.37.74.8 1.07 1.29l.1.14-1.44 1.07-.08-.13c-.32-.5-.6-1-.82-1.5l-.7-1.53-.7 1.54c-.23.5-.5 1-.82 1.5l-.08.12-1.43-1.07.1-.14c.32-.5.68-.92 1.06-1.3l1.22-1.13-1.62-.16a6.25 6.25 0 0 1-1.57-.4l-.16-.07.55-1.76.12.04c.54.2 1.04.43 1.5.7l1.4.8-.3-1.66c-.1-.53-.16-1.1-.16-1.68V357h1.78z"/></defs><g><g transform="translate(-879 -357)"><use fill="#bbb" xlink:href="#d67ua"/></g></g></svg>